<?xml version="1.0" standalone="no"?>
<!DOCTYPE svg PUBLIC "-//W3C//DTD SVG 20010904//EN"
 "http://www.w3.org/TR/2001/REC-SVG-20010904/DTD/svg10.dtd">
<svg version="1.0" xmlns="http://www.w3.org/2000/svg"
 width="700.000000pt" height="700.000000pt" viewBox="0 0 700.000000 700.000000"
 preserveAspectRatio="xMidYMid meet">
<metadata>
Created by potrace 1.14, written by Peter Selinger 2001-2017
</metadata>
<g transform="translate(0.000000,700.000000) scale(0.100000,-0.100000)"
fill="#000000" stroke="none">
<path d="M1653 4034 c-297 -45 -461 -246 -455 -557 5 -255 156 -444 402 -502
47 -11 103 -14 200 -11 144 4 247 25 345 70 l53 24 -2 248 -1 249 -207 3
c-115 1 -208 -1 -209 -5 -1 -14 -1 -138 0 -155 1 -16 12 -18 81 -18 l80 0 0
-104 0 -104 -37 -7 c-109 -22 -225 -6 -296 41 -166 109 -177 443 -20 573 111
91 339 89 526 -5 l47 -24 0 109 0 109 -72 26 c-40 14 -90 28 -110 31 -21 3
-55 8 -75 11 -66 11 -171 10 -250 -2z"/>
<path d="M2747 3784 c-1 -1 -40 -4 -87 -7 -78 -5 -170 -19 -212 -33 -14 -4
-17 -18 -16 -92 1 -48 3 -90 5 -94 2 -4 14 -1 26 6 62 40 243 63 337 43 25 -5
55 -16 67 -24 22 -14 47 -78 38 -94 -3 -4 -51 -8 -107 -9 -57 0 -110 -1 -118
-1 -42 -1 -140 -23 -177 -39 -96 -42 -145 -132 -136 -249 11 -151 129 -240
302 -228 89 5 137 26 196 85 l40 41 1 -50 c0 -27 2 -51 5 -53 7 -7 39 -8 147
-7 l103 1 -1 249 c-1 289 -11 358 -63 429 -53 74 -154 116 -300 125 -26 1 -49
2 -50 1z m156 -496 c-6 -57 -28 -100 -61 -125 -29 -21 -78 -39 -102 -37 -8 1
-25 2 -37 3 -12 0 -35 13 -52 27 -26 21 -31 33 -31 68 0 33 6 48 28 68 34 33
46 35 164 37 l96 1 -5 -42z"/>
<path d="M4318 3775 c-73 -20 -94 -32 -144 -82 l-49 -49 -55 56 c-63 64 -110
83 -198 79 -77 -4 -125 -24 -178 -76 -25 -24 -46 -43 -47 -43 -1 0 -2 19 -1
43 0 23 -3 47 -7 52 -6 8 -190 12 -241 6 -4 -1 -7 -176 -8 -391 l0 -390 45 -1
c25 0 65 0 90 0 25 0 62 0 83 0 l37 1 0 208 c-1 219 4 271 31 328 28 60 94 90
154 70 60 -19 64 -38 66 -334 1 -145 4 -265 6 -267 3 -4 112 -7 196 -6 l52 1
0 218 c0 246 10 307 59 355 37 37 94 49 137 29 52 -24 58 -60 58 -347 l-1
-254 86 -3 c47 -2 104 -1 126 2 l40 5 -1 280 c0 241 -3 288 -18 335 -22 68
-66 125 -117 150 -54 28 -147 39 -201 25z"/>
<path d="M5267 3784 c-1 -1 -31 -4 -67 -7 -225 -19 -358 -161 -365 -390 -7
-220 106 -374 305 -416 67 -15 208 -12 269 4 153 40 258 158 279 313 29 207
-43 369 -196 446 -26 13 -60 27 -77 31 -32 8 -144 23 -148 19z m80 -202 c55
-30 85 -103 84 -212 0 -155 -56 -230 -169 -230 -64 0 -110 30 -141 94 -20 40
-24 63 -24 135 0 125 30 186 106 221 40 18 102 15 144 -8z"/>
<path d="M6265 3755 c-55 -26 -79 -45 -113 -89 l-22 -29 0 62 c0 33 -3 62 -7
62 -5 1 -61 2 -126 3 l-117 1 -1 -35 c-2 -138 0 -742 3 -745 5 -5 71 -7 166
-6 l82 1 0 208 c0 234 8 278 59 335 51 56 155 72 244 38 30 -11 29 -14 29 99
0 17 -1 50 -1 75 l-1 45 -72 0 c-57 0 -84 -6 -123 -25z"/>
</g>
</svg>
